<?xml version="1.0" encoding="UTF-8" standalone="no"?>
<!-- Generator: Adobe Illustrator 19.0.0, SVG Export Plug-In . SVG Version: 6.00 Build 0)  -->

<svg
   version="1.1"
   id="Capa_1"
   x="0px"
   y="0px"
   viewBox="0 0 512 512"
   style="enable-background:new 0 0 512 512;"
   xml:space="preserve"
   opacity=".02"
   transform="rotate(-45 100 100)"
   sodipodi:docname="smile.svg"
   inkscape:version="1.1 (c4e8f9e, 2021-05-24)"
   xmlns:inkscape="http://www.inkscape.org/namespaces/inkscape"
   xmlns:sodipodi="http://sodipodi.sourceforge.net/DTD/sodipodi-0.dtd"
   xmlns="http://www.w3.org/2000/svg"
   xmlns:svg="http://www.w3.org/2000/svg"><defs
   id="defs68" /><sodipodi:namedview
   id="namedview66"
   pagecolor="#ffffff"
   bordercolor="#666666"
   borderopacity="1.0"
   inkscape:pageshadow="2"
   inkscape:pageopacity="0.0"
   inkscape:pagecheckerboard="0"
   showgrid="false"
   inkscape:zoom="0.93554688"
   inkscape:cx="253.86221"
   inkscape:cy="245.31106"
   inkscape:window-width="1280"
   inkscape:window-height="701"
   inkscape:window-x="0"
   inkscape:window-y="25"
   inkscape:window-maximized="0"
   inkscape:current-layer="g31" />
<g
   id="g33">
	<g
   id="g31">
		<g
   id="g29"
   transform="rotate(21.00954,256,256)">
			<path
   d="M 256,0 C 114.844,0 0,114.844 0,256 0,397.156 114.844,512 256,512 397.156,512 512,397.156 512,256 512,114.844 397.156,0 256,0 Z m 0,490.667 C 126.604,490.667 21.333,385.396 21.333,256 21.333,126.604 126.604,21.333 256,21.333 385.396,21.333 490.667,126.604 490.667,256 490.667,385.396 385.396,490.667 256,490.667 Z"
   id="path21" />
			<path
   d="m 393.385,299.115 c -5.781,-1.385 -11.49,2.177 -12.844,7.906 -13.75,57.885 -64.958,98.313 -124.542,98.313 -59.656,0 -110.885,-40.49 -124.573,-98.448 -1.365,-5.75 -7.146,-9.24 -12.833,-7.938 -5.74,1.354 -9.292,7.104 -7.938,12.833 15.979,67.646 75.75,114.885 145.344,114.885 69.51,0 129.26,-47.167 145.292,-114.708 1.365,-5.739 -2.176,-11.489 -7.906,-12.843 z"
   id="path23" />
			<circle
   cx="170.66701"
   cy="192"
   r="21.333"
   id="circle25" />
			<circle
   cx="341.33301"
   cy="192"
   r="21.333"
   id="circle27" />
		</g>
	</g>
</g>
<g
   id="g35">
</g>
<g
   id="g37">
</g>
<g
   id="g39">
</g>
<g
   id="g41">
</g>
<g
   id="g43">
</g>
<g
   id="g45">
</g>
<g
   id="g47">
</g>
<g
   id="g49">
</g>
<g
   id="g51">
</g>
<g
   id="g53">
</g>
<g
   id="g55">
</g>
<g
   id="g57">
</g>
<g
   id="g59">
</g>
<g
   id="g61">
</g>
<g
   id="g63">
</g>
</svg>
